<svg width="36" height="41" viewBox="0 0 36 41" fill="none" xmlns="http://www.w3.org/2000/svg">
<path d="M2.36736 31.8284H24.846C25.1521 31.8284 25.4456 31.7049 25.662 31.4853C25.8784 31.2656 26 30.9677 26 30.657L24.3498 10.8167C24.3498 10.5061 24.2282 10.2081 24.0118 9.98848C23.7954 9.76881 23.5019 9.6454 23.1958 9.6454L4.15507 9.621C3.84902 9.621 3.5555 9.74441 3.33909 9.96408C3.12267 10.1837 3.00109 10.4817 3.00109 10.7923L1.21337 30.657C1.21337 30.9677 1.33495 31.2656 1.55137 31.4853C1.76778 31.7049 2.0613 31.8284 2.36736 31.8284Z" stroke="white" stroke-miterlimit="10"/>
<path d="M19.7841 18.0826V7.01025C19.7841 -0.960442 7.59704 -1.04627 7.59704 7.01025V18.0826" stroke="white" stroke-miterlimit="10" stroke-linecap="round"/>
<circle cx="26.1067" cy="30.7189" r="9.5" fill="#A1D1EA"/>
<path d="M22.3203 27.2189H27.6203C28.8303 27.2189 29.3903 27.8789 29.3903 28.8489V29.5489C29.3903 30.6389 28.7903 31.2589 27.6403 31.2589H23.8403C23.4803 31.2589 23.3203 31.4489 23.3203 31.8289V32.6789C23.3203 32.8189 23.3803 32.8889 23.5203 32.8889H29.1503C29.3003 32.8889 29.3803 32.9589 29.3803 33.1089V33.9989C29.3803 34.1489 29.3003 34.2189 29.1503 34.2189H22.7703C22.1003 34.2189 21.8403 33.9489 21.8403 33.3689V31.8289C21.8403 30.7289 22.4403 30.1089 23.5903 30.1089H27.3903C27.7503 30.1089 27.9103 29.9189 27.9103 29.5489V29.1189C27.9103 28.7689 27.7603 28.5489 27.3803 28.5489H22.3203C22.1703 28.5489 22.1003 28.4789 22.1003 28.3289V27.4389C22.1003 27.2889 22.1703 27.2189 22.3203 27.2189Z" fill="white"/>
</svg>
