<svg width="37" height="36" viewBox="0 0 37 36" fill="none" xmlns="http://www.w3.org/2000/svg">
<g clip-path="url(#clip0_1392_119)">
<path d="M12.3433 36H11.1469L10.5002 35.8745C9.23881 35.6356 8.06136 35.0734 7.08354 34.243C6.10572 33.4127 5.36116 32.3427 4.92301 31.1383C4.48485 29.9338 4.36817 28.6364 4.58443 27.3733C4.80069 26.1103 5.34246 24.9251 6.15649 23.9343C6.40799 23.6295 6.68105 23.3462 6.95051 23.0414C2.11817 22.4892 -0.432727 17.8135 0.407991 13.9088C0.750238 12.1269 1.76499 10.5443 3.24272 9.48765C5.84751 7.63028 8.59242 7.58366 11.3589 8.98924C11.3054 8.10896 11.3115 7.22609 11.3769 6.34661C11.7721 3.47809 13.281 1.40916 16.0475 0.387251C16.5847 0.22294 17.1319 0.093585 17.6858 0H18.9505C19.0655 0.0250996 19.1769 0.0573705 19.2918 0.0717131C20.9038 0.268369 22.3794 1.07269 23.4164 2.31992C24.9469 4.14143 25.4212 6.26414 25.1158 8.59482C25.0978 8.7239 25.0834 8.85299 25.0583 9.03944C25.2775 8.93546 25.4355 8.86374 25.59 8.78486C26.5132 8.32856 27.522 8.0708 28.5513 8.02826C29.5806 7.98573 30.6073 8.15936 31.5651 8.53792C32.5229 8.91648 33.3903 9.49153 34.1113 10.2259C34.8323 10.9602 35.3907 11.8374 35.7505 12.8008C35.9536 13.446 36.1203 14.102 36.2499 14.7657V16.1713C36.2248 16.2717 36.1924 16.3685 36.1745 16.4689C35.6894 19.3375 34.1876 21.4279 31.4535 22.5359C30.8399 22.7493 30.2135 22.9241 29.5781 23.0594L29.4631 23.149C29.6028 23.2111 29.7333 23.2919 29.8511 23.3892C30.6454 24.1601 31.2495 25.1044 31.6161 26.1478C31.9827 27.1912 32.1017 28.3053 31.9637 29.4024C31.626 32.2709 30.0775 34.2896 27.4367 35.4335C26.7563 35.6747 26.0585 35.8641 25.3493 36H24.2248C23.8188 35.9104 23.402 35.8422 23.0032 35.7239C21.0236 35.1323 19.6188 33.8486 18.6164 32.0558C18.523 31.8908 18.4403 31.7187 18.3254 31.4964C18.2104 31.708 18.1385 31.855 18.0595 31.9912C17.6121 32.882 16.9871 33.6723 16.2229 34.3135C15.4587 34.9547 14.5713 35.4334 13.6152 35.7203C13.1876 35.8422 12.7637 35.9068 12.3433 36ZM8.33733 20.9797C8.69661 20.9582 9.0559 20.9438 9.41518 20.9187C10.5218 20.8434 11.5134 20.3665 12.5445 20.0295C13.0619 19.861 13.0547 19.8538 13.0439 19.3123C13.0331 19.1727 13.0331 19.0325 13.0439 18.8928C13.0763 18.692 13.0116 18.5952 12.8104 18.5343C12.4511 18.4375 12.0918 18.3084 11.7325 18.1757C10.7984 17.8745 9.86069 17.5769 8.93015 17.2614C8.70731 17.1947 8.51425 17.0535 8.3834 16.8615C8.25256 16.6696 8.19188 16.4385 8.21158 16.2072C8.21324 15.9887 8.28859 15.7772 8.42548 15.6068C8.56237 15.4363 8.75281 15.3169 8.96607 15.2677C9.22926 15.2257 9.49864 15.2453 9.7529 15.3251C10.8846 15.6837 12.002 16.0422 13.1266 16.4008C13.6763 16.5765 13.6763 16.5765 14.0032 16.1139C14.0807 15.9966 14.1698 15.8873 14.2691 15.7876C14.3271 15.7393 14.3657 15.6717 14.3775 15.5972C14.3894 15.5227 14.3739 15.4464 14.3337 15.3825C13.802 14.5398 13.2918 13.6865 12.7709 12.8367C12.7091 12.7239 12.6276 12.6231 12.5301 12.539C11.8041 11.9172 11.0345 11.3481 10.2272 10.8359C8.25111 9.74223 6.27506 9.85339 4.4535 11.2123C2.72176 12.5283 2.06069 14.3534 2.47745 16.4976C3.06667 19.3841 5.3517 21.0908 8.33733 20.9797ZM28.1409 20.9402V21.0729C28.9622 20.982 29.7745 20.8237 30.5697 20.5996C32.6787 19.8359 33.7709 18.2151 34.0727 16.0386C34.5038 13.0518 32.1361 10.1833 29.1074 10.151C26.7002 10.1151 24.8607 11.2697 23.5242 13.2311C23.1254 13.8191 22.8056 14.4645 22.4463 15.0813C22.1553 15.5833 22.1589 15.5833 22.5182 16.053C22.5878 16.1324 22.6469 16.2204 22.6942 16.3147C22.82 16.6016 23.0032 16.6159 23.2834 16.5191C24.5026 16.1032 25.7373 15.7016 26.9876 15.3143C27.1616 15.2487 27.35 15.2307 27.5333 15.2622C27.7166 15.2937 27.8881 15.3736 28.03 15.4937C28.1718 15.6137 28.2789 15.7694 28.3402 15.9447C28.4014 16.12 28.4145 16.3084 28.3781 16.4904C28.3408 16.7008 28.2416 16.8953 28.0932 17.0492C27.9447 17.2031 27.7537 17.3094 27.5445 17.3546L24.1385 18.4554C23.5852 18.6347 23.5888 18.6347 23.5924 19.2012C23.5835 19.3648 23.5835 19.5288 23.5924 19.6924C23.5995 19.7388 23.6172 19.7829 23.6439 19.8214C23.6707 19.8599 23.7059 19.8918 23.7469 19.9147C25.1625 20.4239 26.5493 21.0944 28.1409 20.9402ZM16.1301 24.0382C16.0367 24.1602 15.9577 24.2641 15.8822 24.3681C15.1421 25.39 14.3948 26.412 13.6547 27.4375C13.548 27.6139 13.3927 27.756 13.2073 27.8469C13.022 27.9378 12.8144 27.9737 12.6092 27.9502C12.4236 27.9311 12.2465 27.8628 12.0963 27.7524C11.9461 27.642 11.8282 27.4935 11.7549 27.3223C11.6815 27.1511 11.6555 26.9634 11.6793 26.7787C11.7032 26.5941 11.7762 26.4191 11.8906 26.2721C12.5445 25.3398 13.22 24.4291 13.8882 23.5112C14.0679 23.2924 14.3337 23.0916 14.3337 22.855C14.3337 22.6183 14.0787 22.3996 13.9745 22.1594C13.9593 22.1042 13.9312 22.0535 13.8924 22.0115C13.8536 21.9694 13.8053 21.9372 13.7515 21.9175C13.6977 21.8979 13.64 21.8914 13.5831 21.8985C13.5263 21.9056 13.472 21.9262 13.4248 21.9586C12.9828 22.1414 12.5194 22.2705 12.0703 22.439C10.6697 22.9313 9.38382 23.7023 8.29063 24.7052C7.34536 25.5832 6.75151 26.7737 6.61936 28.0557C6.4872 29.3377 6.82573 30.624 7.57206 31.6757C7.94287 32.233 8.42377 32.709 8.9853 33.0744C9.54684 33.4398 10.1772 33.687 10.8378 33.8008C11.4984 33.9146 12.1753 33.8926 12.8271 33.7362C13.4789 33.5798 14.0918 33.2923 14.6284 32.8912C15.9397 31.9088 16.5757 30.5068 16.9924 28.9721C17.3517 27.6633 17.2691 26.3259 17.2763 24.9956C17.2763 24.4183 17.2763 24.4219 16.7409 24.2534C16.5397 24.1924 16.3565 24.1171 16.1301 24.0382ZM20.5062 24.0382C20.1972 24.1351 19.9134 24.2498 19.6188 24.3143C19.3996 24.361 19.3493 24.4685 19.3529 24.6729C19.3529 25.4331 19.3529 26.1968 19.3529 26.957C19.3768 28.6157 19.8754 30.2331 20.79 31.6183C21.9685 33.361 23.9086 34.2179 25.7589 33.7697C26.7096 33.5809 27.5867 33.126 28.2879 32.458C28.989 31.79 29.4851 30.9366 29.7182 29.9976C30.2715 27.9932 29.7182 26.2363 28.281 24.7805C26.8439 23.3247 24.8822 22.5072 22.9098 21.8725C22.7266 22.1235 22.5505 22.3673 22.3745 22.5896C22.3446 22.6162 22.3206 22.6488 22.3042 22.6853C22.2878 22.7217 22.2794 22.7612 22.2794 22.8012C22.2794 22.8412 22.2878 22.8807 22.3042 22.9171C22.3206 22.9536 22.3446 22.9862 22.3745 23.0127C22.9457 23.7837 23.5098 24.5653 24.0703 25.3398C24.3182 25.6984 24.5804 26.0139 24.7888 26.3725C24.931 26.597 24.9821 26.8672 24.9316 27.128C24.8811 27.3888 24.7328 27.6206 24.517 27.776C24.3012 27.9315 24.0341 27.999 23.7702 27.9647C23.5063 27.9304 23.2654 27.797 23.0966 27.5916C22.9888 27.4697 22.899 27.3335 22.802 27.2008L20.5062 24.0382ZM16.1948 14.3857C16.4358 14.2865 16.6845 14.2074 16.9385 14.149C17.2224 14.106 17.2798 13.9697 17.2763 13.7044C17.2619 12.392 17.2619 11.0773 17.2763 9.76016C17.2612 9.6145 17.2768 9.46731 17.3223 9.32807C17.3677 9.18884 17.4419 9.06067 17.5401 8.95185C17.6383 8.84302 17.7582 8.75596 17.8922 8.69628C18.0262 8.6366 18.1713 8.60563 18.318 8.60538C18.4647 8.60513 18.6099 8.6356 18.744 8.69481C18.8782 8.75403 18.9985 8.84068 19.097 8.94917C19.1956 9.05766 19.2702 9.18557 19.3162 9.32465C19.3621 9.46372 19.3783 9.61087 19.3637 9.75657C19.3637 9.93227 19.3637 10.1151 19.3637 10.2837V14.0486L20.3948 14.3641C21.3079 12.8443 22.0881 11.2488 22.7266 9.59522C23.1091 8.4392 23.1871 7.20436 22.9529 6.00956C22.2379 2.55657 18.487 1.00398 15.602 2.94382C13.917 4.07689 13.0691 6.35737 13.5074 8.53745C13.9457 10.7175 15.099 12.5068 16.1912 14.3928L16.1948 14.3857ZM18.2858 22.3745C18.9114 22.3844 19.5257 22.2088 20.0513 21.8701C20.5768 21.5313 20.9898 21.0446 21.238 20.4715C21.4862 19.8984 21.5585 19.2647 21.4457 18.6506C21.3329 18.0364 21.0401 17.4695 20.6043 17.0216C20.1685 16.5736 19.6094 16.2647 18.9976 16.134C18.3859 16.0034 17.7491 16.0567 17.1677 16.2874C16.5864 16.5181 16.0867 16.9157 15.7319 17.4299C15.3771 17.9441 15.1831 18.5518 15.1745 19.1761C15.1658 20.0109 15.4878 20.8154 16.0706 21.4144C16.6533 22.0134 17.4495 22.3585 18.2858 22.3745Z" fill="white"/>
</g>
<defs>
<clipPath id="clip0_1392_119">
<rect width="36" height="36" fill="white" transform="translate(0.25)"/>
</clipPath>
</defs>
</svg>
