<svg width="1920" height="1720" viewBox="0 0 1920 1720" fill="none" xmlns="http://www.w3.org/2000/svg">
<g clip-path="url(#clip0_89_650)">
<line x1="2.18557e-08" y1="115.75" x2="1920" y2="115.75" stroke="white" stroke-opacity="0.4" stroke-width="0.5"/>
<line x1="1" y1="231.75" x2="1921" y2="231.75" stroke="white" stroke-opacity="0.4" stroke-width="0.5"/>
<line x1="42" y1="920.75" x2="1880" y2="920.75" stroke="white" stroke-opacity="0.4" stroke-width="0.5"/>
<line x1="42.25" y1="-1.09278e-08" x2="42.2501" y2="1718" stroke="white" stroke-opacity="0.4" stroke-width="0.5"/>
<line x1="1880.25" y1="-1.09278e-08" x2="1880.25" y2="1718" stroke="white" stroke-opacity="0.4" stroke-width="0.5"/>
<line x1="500.25" y1="232" x2="500.25" y2="1609" stroke="white" stroke-opacity="0.4" stroke-width="0.5"/>
<line x1="960.25" y1="232" x2="960.25" y2="1609" stroke="white" stroke-opacity="0.4" stroke-width="0.5"/>
<line x1="1418.25" y1="232" x2="1418.25" y2="1609" stroke="white" stroke-opacity="0.4" stroke-width="0.5"/>
<line x1="143.25" y1="1.09278e-08" x2="143.25" y2="116" stroke="white" stroke-opacity="0.4" stroke-width="0.5"/>
<line x1="1767.25" y1="1.09278e-08" x2="1767.25" y2="116" stroke="white" stroke-opacity="0.4" stroke-width="0.5"/>
<line x1="2.18557e-08" y1="1608.75" x2="1920" y2="1608.75" stroke="white" stroke-opacity="0.4" stroke-width="0.5"/>
<circle cx="42" cy="116" r="3" fill="#D9D9D9" fill-opacity="0.5"/>
<circle cx="143" cy="116" r="3" fill="#D9D9D9" fill-opacity="0.5"/>
<circle cx="1767" cy="116" r="3" fill="#D9D9D9" fill-opacity="0.5"/>
<circle cx="1880" cy="116" r="3" fill="#D9D9D9" fill-opacity="0.5"/>
<circle cx="1880" cy="232" r="3" fill="#D9D9D9" fill-opacity="0.5"/>
<circle cx="1880" cy="921" r="3" fill="#D9D9D9" fill-opacity="0.5"/>
<circle cx="1880" cy="1609" r="3" fill="#D9D9D9" fill-opacity="0.5"/>
<circle cx="42" cy="232" r="3" fill="#D9D9D9" fill-opacity="0.5"/>
<circle cx="42" cy="921" r="3" fill="#D9D9D9" fill-opacity="0.5"/>
<circle cx="42" cy="1609" r="3" fill="#D9D9D9" fill-opacity="0.5"/>
<circle cx="500" cy="232" r="3" fill="#D9D9D9" fill-opacity="0.5"/>
<circle cx="500" cy="921" r="3" fill="#D9D9D9" fill-opacity="0.5"/>
<circle cx="500" cy="1609" r="3" fill="#D9D9D9" fill-opacity="0.5"/>
<circle cx="961" cy="232" r="3" fill="#D9D9D9" fill-opacity="0.5"/>
<circle cx="961" cy="921" r="3" fill="#D9D9D9" fill-opacity="0.5"/>
<circle cx="961" cy="1609" r="3" fill="#D9D9D9" fill-opacity="0.5"/>
<circle cx="1418" cy="232" r="3" fill="#D9D9D9" fill-opacity="0.5"/>
<circle cx="1418" cy="921" r="3" fill="#D9D9D9" fill-opacity="0.5"/>
<circle cx="1418" cy="1609" r="3" fill="#D9D9D9" fill-opacity="0.5"/>
<g opacity="0.4">
<line x1="361.823" y1="114.823" x2="475.823" y2="0.823221" stroke="white" stroke-width="0.5"/>
<line x1="401.823" y1="114.823" x2="515.823" y2="0.823221" stroke="white" stroke-width="0.5"/>
<line x1="381.823" y1="114.823" x2="495.823" y2="0.823221" stroke="white" stroke-width="0.5"/>
<line x1="421.823" y1="114.823" x2="535.823" y2="0.823221" stroke="white" stroke-width="0.5"/>
<line x1="301.823" y1="114.823" x2="415.823" y2="0.823221" stroke="white" stroke-width="0.5"/>
<line x1="341.823" y1="114.823" x2="455.823" y2="0.823221" stroke="white" stroke-width="0.5"/>
<line x1="321.823" y1="114.823" x2="435.823" y2="0.823221" stroke="white" stroke-width="0.5"/>
<line x1="361.823" y1="114.823" x2="475.823" y2="0.823221" stroke="white" stroke-width="0.5"/>
<line x1="241.823" y1="114.823" x2="355.823" y2="0.823221" stroke="white" stroke-width="0.5"/>
<line x1="281.823" y1="114.823" x2="395.823" y2="0.823221" stroke="white" stroke-width="0.5"/>
<line x1="261.823" y1="114.823" x2="375.823" y2="0.823221" stroke="white" stroke-width="0.5"/>
<line x1="301.823" y1="114.823" x2="415.823" y2="0.823221" stroke="white" stroke-width="0.5"/>
<line x1="181.823" y1="114.823" x2="295.823" y2="0.823221" stroke="white" stroke-width="0.5"/>
<line x1="221.823" y1="114.823" x2="335.823" y2="0.823221" stroke="white" stroke-width="0.5"/>
<line x1="201.823" y1="114.823" x2="315.823" y2="0.823221" stroke="white" stroke-width="0.5"/>
<line x1="241.823" y1="114.823" x2="355.823" y2="0.823221" stroke="white" stroke-width="0.5"/>
<line x1="121.823" y1="114.823" x2="235.823" y2="0.823221" stroke="white" stroke-width="0.5"/>
<line x1="161.823" y1="114.823" x2="275.823" y2="0.823221" stroke="white" stroke-width="0.5"/>
<line x1="141.823" y1="114.823" x2="255.823" y2="0.823221" stroke="white" stroke-width="0.5"/>
<line x1="181.823" y1="114.823" x2="295.823" y2="0.823221" stroke="white" stroke-width="0.5"/>
<line x1="61.8232" y1="114.823" x2="175.823" y2="0.823221" stroke="white" stroke-width="0.5"/>
<line x1="101.823" y1="114.823" x2="215.823" y2="0.823221" stroke="white" stroke-width="0.5"/>
<line x1="81.8232" y1="114.823" x2="195.823" y2="0.823221" stroke="white" stroke-width="0.5"/>
<line x1="121.823" y1="114.823" x2="235.823" y2="0.823221" stroke="white" stroke-width="0.5"/>
<line x1="1.82322" y1="114.823" x2="115.823" y2="0.823221" stroke="white" stroke-width="0.5"/>
<line x1="41.8232" y1="114.823" x2="155.823" y2="0.823221" stroke="white" stroke-width="0.5"/>
<line x1="21.8232" y1="114.823" x2="135.823" y2="0.823221" stroke="white" stroke-width="0.5"/>
<line x1="61.8232" y1="114.823" x2="175.823" y2="0.823221" stroke="white" stroke-width="0.5"/>
<line x1="-58.1768" y1="114.823" x2="55.8232" y2="0.823221" stroke="white" stroke-width="0.5"/>
<line x1="-18.1768" y1="114.823" x2="95.8232" y2="0.823221" stroke="white" stroke-width="0.5"/>
<line x1="-38.1768" y1="114.823" x2="75.8232" y2="0.823221" stroke="white" stroke-width="0.5"/>
<line x1="1.82322" y1="114.823" x2="115.823" y2="0.823221" stroke="white" stroke-width="0.5"/>
<line x1="-78.1768" y1="114.823" x2="35.8232" y2="0.823221" stroke="white" stroke-width="0.5"/>
<line x1="-98.1768" y1="114.823" x2="15.8232" y2="0.823221" stroke="white" stroke-width="0.5"/>
<line x1="-58.1768" y1="114.823" x2="55.8232" y2="0.823221" stroke="white" stroke-width="0.5"/>
<line x1="1341.82" y1="114.823" x2="1455.82" y2="0.823221" stroke="white" stroke-width="0.5"/>
<line x1="1381.82" y1="114.823" x2="1495.82" y2="0.823221" stroke="white" stroke-width="0.5"/>
<line x1="1361.82" y1="114.823" x2="1475.82" y2="0.823221" stroke="white" stroke-width="0.5"/>
<line x1="1401.82" y1="114.823" x2="1515.82" y2="0.823221" stroke="white" stroke-width="0.5"/>
<line x1="1281.82" y1="114.823" x2="1395.82" y2="0.823221" stroke="white" stroke-width="0.5"/>
<line x1="1321.82" y1="114.823" x2="1435.82" y2="0.823221" stroke="white" stroke-width="0.5"/>
<line x1="1301.82" y1="114.823" x2="1415.82" y2="0.823221" stroke="white" stroke-width="0.5"/>
<line x1="1341.82" y1="114.823" x2="1455.82" y2="0.823221" stroke="white" stroke-width="0.5"/>
<line x1="1221.82" y1="114.823" x2="1335.82" y2="0.823221" stroke="white" stroke-width="0.5"/>
<line x1="1261.82" y1="114.823" x2="1375.82" y2="0.823221" stroke="white" stroke-width="0.5"/>
<line x1="1241.82" y1="114.823" x2="1355.82" y2="0.823221" stroke="white" stroke-width="0.5"/>
<line x1="1281.82" y1="114.823" x2="1395.82" y2="0.823221" stroke="white" stroke-width="0.5"/>
<line x1="1161.82" y1="114.823" x2="1275.82" y2="0.823221" stroke="white" stroke-width="0.5"/>
<line x1="1201.82" y1="114.823" x2="1315.82" y2="0.823221" stroke="white" stroke-width="0.5"/>
<line x1="1181.82" y1="114.823" x2="1295.82" y2="0.823221" stroke="white" stroke-width="0.5"/>
<line x1="1221.82" y1="114.823" x2="1335.82" y2="0.823221" stroke="white" stroke-width="0.5"/>
<line x1="1101.82" y1="114.823" x2="1215.82" y2="0.823221" stroke="white" stroke-width="0.5"/>
<line x1="1141.82" y1="114.823" x2="1255.82" y2="0.823221" stroke="white" stroke-width="0.5"/>
<line x1="1121.82" y1="114.823" x2="1235.82" y2="0.823221" stroke="white" stroke-width="0.5"/>
<line x1="1161.82" y1="114.823" x2="1275.82" y2="0.823221" stroke="white" stroke-width="0.5"/>
<line x1="1041.82" y1="114.823" x2="1155.82" y2="0.823221" stroke="white" stroke-width="0.5"/>
<line x1="1081.82" y1="114.823" x2="1195.82" y2="0.823221" stroke="white" stroke-width="0.5"/>
<line x1="1061.82" y1="114.823" x2="1175.82" y2="0.823221" stroke="white" stroke-width="0.5"/>
<line x1="1101.82" y1="114.823" x2="1215.82" y2="0.823221" stroke="white" stroke-width="0.5"/>
<line x1="981.823" y1="114.823" x2="1095.82" y2="0.823221" stroke="white" stroke-width="0.5"/>
<line x1="1021.82" y1="114.823" x2="1135.82" y2="0.823221" stroke="white" stroke-width="0.5"/>
<line x1="1001.82" y1="114.823" x2="1115.82" y2="0.823221" stroke="white" stroke-width="0.5"/>
<line x1="1041.82" y1="114.823" x2="1155.82" y2="0.823221" stroke="white" stroke-width="0.5"/>
<line x1="921.823" y1="114.823" x2="1035.82" y2="0.823221" stroke="white" stroke-width="0.5"/>
<line x1="961.823" y1="114.823" x2="1075.82" y2="0.823221" stroke="white" stroke-width="0.5"/>
<line x1="941.823" y1="114.823" x2="1055.82" y2="0.823221" stroke="white" stroke-width="0.5"/>
<line x1="981.823" y1="114.823" x2="1095.82" y2="0.823221" stroke="white" stroke-width="0.5"/>
<line x1="861.823" y1="114.823" x2="975.823" y2="0.823221" stroke="white" stroke-width="0.5"/>
<line x1="901.823" y1="114.823" x2="1015.82" y2="0.823221" stroke="white" stroke-width="0.5"/>
<line x1="881.823" y1="114.823" x2="995.823" y2="0.823221" stroke="white" stroke-width="0.5"/>
<line x1="921.823" y1="114.823" x2="1035.82" y2="0.823221" stroke="white" stroke-width="0.5"/>
<line x1="801.823" y1="114.823" x2="915.823" y2="0.823221" stroke="white" stroke-width="0.5"/>
<line x1="841.823" y1="114.823" x2="955.823" y2="0.823221" stroke="white" stroke-width="0.5"/>
<line x1="821.823" y1="114.823" x2="935.823" y2="0.823221" stroke="white" stroke-width="0.5"/>
<line x1="861.823" y1="114.823" x2="975.823" y2="0.823221" stroke="white" stroke-width="0.5"/>
<line x1="741.823" y1="114.823" x2="855.823" y2="0.823221" stroke="white" stroke-width="0.5"/>
<line x1="781.823" y1="114.823" x2="895.823" y2="0.823221" stroke="white" stroke-width="0.5"/>
<line x1="761.823" y1="114.823" x2="875.823" y2="0.823221" stroke="white" stroke-width="0.5"/>
<line x1="801.823" y1="114.823" x2="915.823" y2="0.823221" stroke="white" stroke-width="0.5"/>
<line x1="681.823" y1="114.823" x2="795.823" y2="0.823221" stroke="white" stroke-width="0.5"/>
<line x1="721.823" y1="114.823" x2="835.823" y2="0.823221" stroke="white" stroke-width="0.5"/>
<line x1="701.823" y1="114.823" x2="815.823" y2="0.823221" stroke="white" stroke-width="0.5"/>
<line x1="741.823" y1="114.823" x2="855.823" y2="0.823221" stroke="white" stroke-width="0.5"/>
<line x1="621.823" y1="114.823" x2="735.823" y2="0.823221" stroke="white" stroke-width="0.5"/>
<line x1="661.823" y1="114.823" x2="775.823" y2="0.823221" stroke="white" stroke-width="0.5"/>
<line x1="641.823" y1="114.823" x2="755.823" y2="0.823221" stroke="white" stroke-width="0.5"/>
<line x1="681.823" y1="114.823" x2="795.823" y2="0.823221" stroke="white" stroke-width="0.5"/>
<line x1="561.823" y1="114.823" x2="675.823" y2="0.823221" stroke="white" stroke-width="0.5"/>
<line x1="601.823" y1="114.823" x2="715.823" y2="0.823221" stroke="white" stroke-width="0.5"/>
<line x1="581.823" y1="114.823" x2="695.823" y2="0.823221" stroke="white" stroke-width="0.5"/>
<line x1="621.823" y1="114.823" x2="735.823" y2="0.823221" stroke="white" stroke-width="0.5"/>
<line x1="501.823" y1="114.823" x2="615.823" y2="0.823221" stroke="white" stroke-width="0.5"/>
<line x1="541.823" y1="114.823" x2="655.823" y2="0.823221" stroke="white" stroke-width="0.5"/>
<line x1="521.823" y1="114.823" x2="635.823" y2="0.823221" stroke="white" stroke-width="0.5"/>
<line x1="561.823" y1="114.823" x2="675.823" y2="0.823221" stroke="white" stroke-width="0.5"/>
<line x1="441.823" y1="114.823" x2="555.823" y2="0.823221" stroke="white" stroke-width="0.5"/>
<line x1="481.823" y1="114.823" x2="595.823" y2="0.823221" stroke="white" stroke-width="0.5"/>
<line x1="461.823" y1="114.823" x2="575.823" y2="0.823221" stroke="white" stroke-width="0.5"/>
<line x1="501.823" y1="114.823" x2="615.823" y2="0.823221" stroke="white" stroke-width="0.5"/>
<line x1="1881.82" y1="114.823" x2="1995.82" y2="0.823221" stroke="white" stroke-width="0.5"/>
<line x1="1901.82" y1="114.823" x2="2015.82" y2="0.823221" stroke="white" stroke-width="0.5"/>
<line x1="1821.82" y1="114.823" x2="1935.82" y2="0.823221" stroke="white" stroke-width="0.5"/>
<line x1="1861.82" y1="114.823" x2="1975.82" y2="0.823221" stroke="white" stroke-width="0.5"/>
<line x1="1841.82" y1="114.823" x2="1955.82" y2="0.823221" stroke="white" stroke-width="0.5"/>
<line x1="1881.82" y1="114.823" x2="1995.82" y2="0.823221" stroke="white" stroke-width="0.5"/>
<line x1="1761.82" y1="114.823" x2="1875.82" y2="0.823221" stroke="white" stroke-width="0.5"/>
<line x1="1801.82" y1="114.823" x2="1915.82" y2="0.823221" stroke="white" stroke-width="0.5"/>
<line x1="1781.82" y1="114.823" x2="1895.82" y2="0.823221" stroke="white" stroke-width="0.5"/>
<line x1="1821.82" y1="114.823" x2="1935.82" y2="0.823221" stroke="white" stroke-width="0.5"/>
<line x1="1701.82" y1="114.823" x2="1815.82" y2="0.823221" stroke="white" stroke-width="0.5"/>
<line x1="1741.82" y1="114.823" x2="1855.82" y2="0.823221" stroke="white" stroke-width="0.5"/>
<line x1="1721.82" y1="114.823" x2="1835.82" y2="0.823221" stroke="white" stroke-width="0.5"/>
<line x1="1761.82" y1="114.823" x2="1875.82" y2="0.823221" stroke="white" stroke-width="0.5"/>
<line x1="1641.82" y1="114.823" x2="1755.82" y2="0.823221" stroke="white" stroke-width="0.5"/>
<line x1="1681.82" y1="114.823" x2="1795.82" y2="0.823221" stroke="white" stroke-width="0.5"/>
<line x1="1661.82" y1="114.823" x2="1775.82" y2="0.823221" stroke="white" stroke-width="0.5"/>
<line x1="1701.82" y1="114.823" x2="1815.82" y2="0.823221" stroke="white" stroke-width="0.5"/>
<line x1="1581.82" y1="114.823" x2="1695.82" y2="0.823221" stroke="white" stroke-width="0.5"/>
<line x1="1621.82" y1="114.823" x2="1735.82" y2="0.823221" stroke="white" stroke-width="0.5"/>
<line x1="1601.82" y1="114.823" x2="1715.82" y2="0.823221" stroke="white" stroke-width="0.5"/>
<line x1="1641.82" y1="114.823" x2="1755.82" y2="0.823221" stroke="white" stroke-width="0.5"/>
<line x1="1521.82" y1="114.823" x2="1635.82" y2="0.823221" stroke="white" stroke-width="0.5"/>
<line x1="1561.82" y1="114.823" x2="1675.82" y2="0.823221" stroke="white" stroke-width="0.5"/>
<line x1="1541.82" y1="114.823" x2="1655.82" y2="0.823221" stroke="white" stroke-width="0.5"/>
<line x1="1581.82" y1="114.823" x2="1695.82" y2="0.823221" stroke="white" stroke-width="0.5"/>
<line x1="1461.82" y1="114.823" x2="1575.82" y2="0.823221" stroke="white" stroke-width="0.5"/>
<line x1="1501.82" y1="114.823" x2="1615.82" y2="0.823221" stroke="white" stroke-width="0.5"/>
<line x1="1481.82" y1="114.823" x2="1595.82" y2="0.823221" stroke="white" stroke-width="0.5"/>
<line x1="1521.82" y1="114.823" x2="1635.82" y2="0.823221" stroke="white" stroke-width="0.5"/>
<line x1="1401.82" y1="114.823" x2="1515.82" y2="0.823221" stroke="white" stroke-width="0.5"/>
<line x1="1441.82" y1="114.823" x2="1555.82" y2="0.823221" stroke="white" stroke-width="0.5"/>
<line x1="1421.82" y1="114.823" x2="1535.82" y2="0.823221" stroke="white" stroke-width="0.5"/>
<line x1="1461.82" y1="114.823" x2="1575.82" y2="0.823221" stroke="white" stroke-width="0.5"/>
</g>
</g>
<defs>
<clipPath id="clip0_89_650">
<rect width="1922" height="1725" fill="white"/>
</clipPath>
</defs>
</svg>
