<svg width="64" height="30" viewBox="0 0 64 30" fill="none" xmlns="http://www.w3.org/2000/svg">
<rect x="0.25" y="0.25" width="63.5" height="29.5" rx="14.75" stroke="white" stroke-opacity="0.4" stroke-width="0.5"/>
<path d="M15.1702 11.86H15.7702C15.8902 11.86 15.9502 11.92 15.9502 12.04V14.02H17.9402C18.0602 14.02 18.1202 14.08 18.1202 14.2V14.8C18.1202 14.92 18.0602 14.98 17.9402 14.98H15.9502V16.97C15.9502 17.09 15.8902 17.15 15.7702 17.15H15.1702C15.0502 17.15 14.9902 17.09 14.9902 16.97V14.98H13.0102C12.8902 14.98 12.8302 14.92 12.8302 14.8V14.2C12.8302 14.08 12.8902 14.02 13.0102 14.02H14.9902V12.04C14.9902 11.92 15.0502 11.86 15.1702 11.86ZM23.3726 11H29.5126C29.6626 11 29.7326 11.07 29.7326 11.22V12.11C29.7326 12.26 29.6626 12.33 29.5126 12.33H24.1226C23.9826 12.33 23.9226 12.4 23.9226 12.54V13.68C23.9226 13.82 23.9826 13.89 24.1226 13.89H28.2426C29.3926 13.89 29.9926 14.51 29.9926 15.6V16.37C29.9926 17.34 29.4326 18 28.2226 18H22.6826C22.5326 18 22.4526 17.93 22.4526 17.78V16.89C22.4526 16.74 22.5326 16.67 22.6826 16.67H27.9826C28.3626 16.67 28.5126 16.45 28.5126 16.1V15.6C28.5126 15.23 28.3526 15.04 27.9926 15.04H23.3726C22.7026 15.04 22.4426 14.78 22.4426 14.19V11.85C22.4426 11.27 22.7026 11 23.3726 11ZM41.025 11H42.325C42.505 11 42.515 11.17 42.425 11.26L39.355 14.37L42.565 17.74C42.655 17.83 42.645 18 42.465 18H41.095C40.935 18 40.855 17.96 40.775 17.86L38.305 15.27L35.825 17.86C35.735 17.96 35.665 18 35.495 18H34.195C34.025 18 34.015 17.83 34.105 17.74L37.395 14.32L34.425 11.26C34.345 11.17 34.345 11 34.525 11H35.895C36.055 11 36.135 11.05 36.215 11.14L38.395 13.46L40.705 11.14C40.785 11.05 40.865 11 41.025 11ZM43.7413 11H49.1113C50.6413 11 51.2613 11.71 51.2613 13.06V13.8C51.2613 15.15 50.6413 15.86 49.1113 15.86H44.9713V17.78C44.9713 17.93 44.9013 18 44.7513 18H43.6713C43.5213 18 43.4412 17.93 43.4412 17.78V11.3C43.4412 11.1 43.5413 11 43.7413 11ZM44.9713 12.5V14.54H48.8013C49.4813 14.54 49.7313 14.25 49.7313 13.65V13.27C49.7313 12.67 49.4813 12.38 48.8013 12.38H45.1013C45.0113 12.38 44.9713 12.41 44.9713 12.5Z" fill="white"/>
</svg>
