<svg width="48" height="48" viewBox="0 0 48 48" fill="none" xmlns="http://www.w3.org/2000/svg">
<rect x="0.5" y="0.5" width="47" height="47" rx="10.5" stroke="white" stroke-linejoin="round"/>
<path d="M23.0247 20.02H24.9847C25.2847 20.02 25.4247 20.18 25.4247 20.48V30.56C25.4247 30.86 25.2847 31 24.9847 31H23.0247C22.7247 31 22.5847 30.86 22.5847 30.56V20.48C22.5847 20.18 22.7247 20.02 23.0247 20.02ZM23.0247 15.96H24.9847C25.2847 15.96 25.4247 16.1 25.4247 16.4V18.3C25.4247 18.6 25.2847 18.76 24.9847 18.76H23.0247C22.7247 18.76 22.5647 18.6 22.5647 18.3V16.4C22.5647 16.1 22.7247 15.96 23.0247 15.96Z" fill="white"/>
</svg>
