<svg width="72" height="24" viewBox="0 0 72 24" fill="none" xmlns="http://www.w3.org/2000/svg">
<rect x="0.25" y="0.583252" width="71.5" height="22.5" rx="11.25" stroke="white" stroke-width="0.5"/>
<path d="M8.1493 13.3733V12.9233H10.7193V13.3733H8.1493ZM32.6405 15.8333V15.4733L35.6005 12.5333C35.8805 12.2533 36.0905 12.0099 36.2305 11.8033C36.3705 11.5899 36.4638 11.3933 36.5105 11.2133C36.5638 11.0333 36.5905 10.8566 36.5905 10.6833C36.5905 10.2433 36.4405 9.89659 36.1405 9.64325C35.8405 9.38325 35.4005 9.25325 34.8205 9.25325C34.3805 9.25325 33.9938 9.31992 33.6605 9.45325C33.3338 9.58659 33.0505 9.78992 32.8105 10.0633L32.4505 9.74325C32.7171 9.43658 33.0538 9.19992 33.4605 9.03325C33.8738 8.86658 34.3405 8.78325 34.8605 8.78325C35.3205 8.78325 35.7171 8.85992 36.0505 9.01325C36.3905 9.15992 36.6505 9.37325 36.8305 9.65325C37.0171 9.92659 37.1105 10.2533 37.1105 10.6333C37.1105 10.8599 37.0771 11.0833 37.0105 11.3033C36.9505 11.5166 36.8371 11.7433 36.6705 11.9833C36.5105 12.2233 36.2771 12.4966 35.9705 12.8033L33.1905 15.5733L33.0205 15.3733H37.4505V15.8333H32.6405ZM61.3973 14.4033V10.2633H61.8473V14.4033H61.3973ZM59.4973 12.5533V12.1233H63.7473V12.5533H59.4973Z" fill="white"/>
</svg>
