<svg width="1920" height="1080" viewBox="0 0 1920 1080" fill="none" xmlns="http://www.w3.org/2000/svg">
<g opacity="0.6" clip-path="url(#clip0_364_979)">
<line x1="42.25" y1="-1.09278e-08" x2="42.25" y2="1096" stroke="white" stroke-opacity="0.4" stroke-width="0.5"/>
<line x1="1880.25" y1="-1.09278e-08" x2="1880.25" y2="1096" stroke="white" stroke-opacity="0.4" stroke-width="0.5"/>
<line x1="2.18557e-08" y1="115.75" x2="1920" y2="115.75" stroke="white" stroke-opacity="0.4" stroke-width="0.5"/>
<line x1="2.18557e-08" y1="967.75" x2="1920" y2="967.75" stroke="white" stroke-opacity="0.4" stroke-width="0.5"/>
<rect x="195" y="1027" width="4" height="112" transform="rotate(-90 195 1027)" fill="#D9D9D9" fill-opacity="0.3"/>
<rect x="860" y="1027" width="4" height="55" transform="rotate(-90 860 1027)" fill="#D9D9D9" fill-opacity="0.3"/>
<rect x="332" y="1027" width="4" height="27" transform="rotate(-90 332 1027)" fill="#D9D9D9" fill-opacity="0.3"/>
<circle cx="42" cy="116" r="3" fill="#D9D9D9" fill-opacity="0.7"/>
<circle cx="1880" cy="116" r="3" fill="#D9D9D9" fill-opacity="0.7"/>
<circle cx="1880" cy="968" r="3" fill="#D9D9D9" fill-opacity="0.7"/>
<circle cx="42" cy="968" r="3" fill="#D9D9D9" fill-opacity="0.7"/>
<circle cx="42" cy="702" r="3" fill="#D9D9D9" fill-opacity="0.7"/>
</g>
<defs>
<clipPath id="clip0_364_979">
<rect width="1920" height="1080" fill="white"/>
</clipPath>
</defs>
</svg>
